<svg class="svg-icon" style="width: 1em; height: 1em;vertical-align: middle;fill: currentColor;overflow: hidden;" viewBox="0 0 1024 1024" version="1.1" xmlns="http://www.w3.org/2000/svg"><path d="M736 432.04V336c0-59.833-23.3-116.084-65.607-158.392C628.084 135.3 571.833 112 512 112s-116.084 23.3-158.392 65.608C311.3 219.916 288 276.167 288 336v96.04c-53.185 1.462-96 45.179-96 98.711v282.498C192 867.7 236.299 912 290.751 912h442.498C787.7 912 832 867.7 832 813.249V530.751c0-53.532-42.816-97.249-96-98.711zM512 176c88.225 0 160 71.776 160 160v96H352v-96c0-88.224 71.776-160 160-160z m256 637.249C768 832.411 752.411 848 733.249 848H290.751C271.589 848 256 832.411 256 813.249V530.751C256 511.589 271.589 496 290.751 496h442.498C752.411 496 768 511.589 768 530.751v282.498z"  /></svg>