<svg width="17" height="17" viewBox="0 0 17 17" fill="none" xmlns="http://www.w3.org/2000/svg">
<path d="M8.46558 4.47571C6.25449 4.47571 4.47101 6.25919 4.47101 8.47028C4.47101 10.6814 6.25449 12.4649 8.46558 12.4649C10.6767 12.4649 12.4602 10.6814 12.4602 8.47028C12.4602 6.25919 10.6767 4.47571 8.46558 4.47571ZM8.46558 11.0673C7.03671 11.0673 5.86859 9.90263 5.86859 8.47028C5.86859 7.03794 7.03324 5.87329 8.46558 5.87329C9.89793 5.87329 11.0626 7.03794 11.0626 8.47028C11.0626 9.90263 9.89445 11.0673 8.46558 11.0673ZM13.5553 4.31231C13.5553 4.83032 13.1381 5.24403 12.6236 5.24403C12.1055 5.24403 11.6918 4.82685 11.6918 4.31231C11.6918 3.79778 12.109 3.3806 12.6236 3.3806C13.1381 3.3806 13.5553 3.79778 13.5553 4.31231ZM16.2009 5.25794C16.1418 4.00985 15.8568 2.90431 14.9424 1.99345C14.0316 1.08259 12.926 0.79751 11.6779 0.734932C10.3916 0.661924 6.53609 0.661924 5.24976 0.734932C4.00515 0.794033 2.8996 1.07911 1.98527 1.98997C1.07093 2.90083 0.789331 4.00638 0.726753 5.25446C0.653745 6.54079 0.653745 10.3963 0.726753 11.6826C0.785854 12.9307 1.07093 14.0363 1.98527 14.9471C2.8996 15.858 4.00168 16.1431 5.24976 16.2056C6.53609 16.2786 10.3916 16.2786 11.6779 16.2056C12.926 16.1465 14.0316 15.8615 14.9424 14.9471C15.8533 14.0363 16.1384 12.9307 16.2009 11.6826C16.2739 10.3963 16.2739 6.54427 16.2009 5.25794ZM14.5391 13.0628C14.268 13.7442 13.743 14.2692 13.0581 14.5438C12.0325 14.9506 9.59894 14.8567 8.46558 14.8567C7.33222 14.8567 4.89515 14.9471 3.87304 14.5438C3.19164 14.2727 2.66667 13.7477 2.39203 13.0628C1.98527 12.0372 2.07914 9.60364 2.07914 8.47028C2.07914 7.33692 1.98875 4.89985 2.39203 3.87774C2.6632 3.19634 3.18816 2.67138 3.87304 2.39673C4.89863 1.98997 7.33222 2.08384 8.46558 2.08384C9.59894 2.08384 12.036 1.99345 13.0581 2.39673C13.7395 2.6679 14.2645 3.19286 14.5391 3.87774C14.9459 4.90333 14.852 7.33692 14.852 8.47028C14.852 9.60364 14.9459 12.0407 14.5391 13.0628Z" fill="#2A2F2F"/>
</svg>
