<svg width="19" height="15" viewBox="0 0 19 15" fill="none" xmlns="http://www.w3.org/2000/svg">
<path d="M16.3464 3.99499C16.3577 4.1531 16.3577 4.31125 16.3577 4.46937C16.3577 9.29205 12.687 14.8489 5.97813 14.8489C3.91124 14.8489 1.99121 14.2503 0.376099 13.2113C0.669764 13.2451 0.952095 13.2564 1.25706 13.2564C2.96249 13.2564 4.53243 12.6804 5.78612 11.6978C4.18231 11.6639 2.83827 10.6135 2.37519 9.16784C2.6011 9.2017 2.82697 9.2243 3.06418 9.2243C3.3917 9.2243 3.71927 9.1791 4.02419 9.10008C2.35263 8.76122 1.09891 7.29296 1.09891 5.51974V5.47458C1.58455 5.74565 2.14932 5.91506 2.74788 5.93762C1.76526 5.28254 1.12151 4.1644 1.12151 2.89942C1.12151 2.22177 1.30219 1.60058 1.61845 1.05844C3.41427 3.27214 6.11364 4.7178 9.14051 4.87595C9.08405 4.60488 9.05016 4.32255 9.05016 4.04019C9.05016 2.02976 10.6766 0.39209 12.6983 0.39209C13.7486 0.39209 14.6973 0.83257 15.3637 1.54412C16.1882 1.386 16.9788 1.08104 17.6791 0.663157C17.408 1.51026 16.832 2.2218 16.0753 2.67355C16.8094 2.59453 17.521 2.39118 18.176 2.10885C17.6792 2.83166 17.0579 3.47542 16.3464 3.99499Z" fill="#2A2F2F"/>
</svg>
